<?xml version="1.0"?><svg width="2481" height="2073" xmlns="http://www.w3.org/2000/svg">
 <title>orange pin</title>
 <defs>
  <filter x="-50%" y="-50%" height="200%" width="200%" id="svg_3_blur">
   <feGaussianBlur stdDeviation="7.7"/>
  </filter>
 </defs>
 <g>
  <title>Layer 1</title>
  <path d="m730.940002,1840.630005c-38.765991,-190.300049 -107.116028,-348.670044 -189.903015,-495.440063c-61.406982,-108.869995 -132.543976,-209.359985 -198.363983,-314.939941c-21.972015,-35.242981 -40.93399,-72.476013 -62.046997,-109.052979c-42.216003,-73.137024 -76.444,-157.934998 -74.269012,-267.932007c2.125,-107.473022 33.208008,-193.684021 78.029999,-264.172028c73.718994,-115.934998 197.201019,-210.988983 362.884003,-235.968994c135.466003,-20.423996 262.474976,14.082001 352.54303,66.748001c73.596008,43.03801 130.596008,100.526993 173.915955,168.280014c45.219971,70.716003 76.359985,154.259979 78.969971,263.231964c1.340088,55.830017 -7.799927,107.532043 -20.679932,150.41803c-13.030029,43.408997 -33.98999,79.695007 -52.640015,118.453979c-36.410034,75.658997 -82.050049,144.984009 -127.859985,214.343994c-136.437012,206.609985 -264.496033,417.310059 -320.580017,706.030029z" stroke-width="31" stroke-miterlimit="10" fill-rule="evenodd" fill="#a30101" clip-rule="evenodd" id="svg_2"/>
  <path filter="url(#svg_3_blur)" d="m731.379028,1838.955444c131.603943,-120.869995 211.313965,-235.97998 269.140991,-350.48999c42.890015,-84.950073 70.540039,-169.170044 106.949951,-254.060059c12.160034,-28.339966 28.51001,-56.569946 42.52002,-85.299927c28.02002,-57.450073 72.660034,-118.140015 169.030029,-178.100037c94.160034,-58.589966 193.949951,-93.755981 291.579956,-114.69696c160.560059,-34.442017 344.280029,-37.299011 502.589966,15.593018c129.449951,43.243958 204.680176,113.463928 233.780029,178.863892c23.780029,53.440063 21.429932,108.180054 -1.040039,163.099976c-23.459961,57.320068 -69.569824,116.070068 -161.109863,177.390015c-46.900146,31.420044 -98.900146,56.340088 -146.410034,74.869995c-48.090088,18.76001 -96.599976,30.390015 -145.330078,44.320068c-95.119995,27.189941 -192.419922,47.150024 -289.890015,67.079956c-290.319946,59.339966 -577.25,124.320068 -871.810913,261.430054z" fill-rule="evenodd" fill="black" clip-rule="evenodd" opacity="0.25" id="svg_3"/>
  <circle r="183.333" cy="651.047" cx="729.546" fill-rule="evenodd" fill="#ffffff" clip-rule="evenodd" id="svg_4"/>
 </g>
</svg>